<?xml version="1.0" standalone="no"?>
<!DOCTYPE svg PUBLIC "-//W3C//DTD SVG 20010904//EN"
 "http://www.w3.org/TR/2001/REC-SVG-20010904/DTD/svg10.dtd">
<svg version="1.0" xmlns="http://www.w3.org/2000/svg"
 width="260.000000pt" height="260.000000pt" viewBox="0 0 260.000000 260.000000"
 preserveAspectRatio="xMidYMid meet">
<metadata>
Created by potrace 1.14, written by Peter Selinger 2001-2017
</metadata>
<g transform="translate(0.000000,260.000000) scale(0.100000,-0.100000)"
fill="#000000" stroke="none">
<path d="M718 2392 c-10 -7 -16 -17 -13 -22 3 -4 1 -10 -3 -12 -5 -1 -59 -101
-120 -220 -61 -119 -136 -263 -165 -320 -30 -57 -105 -202 -167 -323 -62 -121
-137 -266 -167 -323 -53 -100 -62 -136 -24 -96 10 10 56 53 101 94 46 41 96
86 110 100 15 14 70 65 122 113 83 77 96 93 101 127 7 52 52 106 95 116 55 11
94 -6 127 -58 24 -37 44 -52 97 -77 37 -17 69 -30 70 -29 2 2 17 -6 33 -17 17
-12 59 -34 93 -50 62 -29 64 -29 78 -10 8 10 14 25 14 32 0 7 5 13 10 13 6 0
10 4 10 10 0 14 84 184 93 188 4 2 7 12 7 23 0 10 5 19 12 19 6 0 9 2 6 5 -3
3 28 70 68 149 40 80 70 147 67 150 -4 3 -1 6 5 6 8 0 7 12 -3 40 -18 51 -18
44 0 87 25 59 59 86 112 89 53 3 84 -13 113 -60 19 -32 40 -41 140 -61 14 -3
32 -8 40 -12 8 -3 24 -8 35 -10 28 -6 38 -9 55 -16 8 -3 42 -14 74 -23 l59
-16 33 36 34 37 -72 137 c-39 75 -80 150 -89 167 l-18 29 -577 1 c-462 0 -580
-3 -596 -13z"/>
<path d="M2224 2049 c-65 -61 -120 -115 -122 -119 -2 -5 -19 -20 -38 -35 l-34
-26 -80 18 c-44 10 -80 21 -80 25 0 4 -7 5 -15 2 -8 -4 -22 -1 -30 6 -8 7 -15
9 -15 6 0 -4 -8 -2 -18 3 -11 6 -30 12 -43 15 -13 3 -52 13 -86 22 -60 16 -63
16 -91 -4 -15 -11 -39 -23 -53 -27 -23 -6 -69 -63 -69 -85 0 -5 -5 -10 -12
-10 -6 0 -8 -3 -5 -6 4 -4 -13 -44 -38 -90 -24 -46 -42 -84 -40 -84 3 0 -5
-17 -18 -37 -12 -21 -34 -63 -47 -93 -14 -30 -31 -61 -37 -68 -7 -7 -13 -22
-13 -33 0 -10 -4 -19 -10 -19 -5 0 -10 -6 -10 -13 0 -12 -82 -173 -95 -185 -3
-3 -17 1 -32 8 -16 8 -30 14 -33 15 -21 5 -187 91 -192 99 -4 6 -8 7 -8 3 0
-5 -20 3 -45 17 -25 15 -45 23 -45 19 0 -4 -4 -3 -8 3 -9 14 -62 27 -62 16 0
-20 -95 -49 -105 -32 -12 20 -56 -4 -122 -67 -38 -38 -103 -98 -143 -136 l-74
-67 27 -53 c15 -28 47 -88 70 -132 24 -44 77 -143 117 -220 119 -228 201 -379
211 -389 9 -10 10 13 10 316 l0 138 27 1 c15 0 69 1 119 2 l93 2 -1 -269 c0
-147 2 -270 5 -273 10 -10 220 -8 230 3 8 7 11 130 10 390 0 208 3 386 7 395
6 12 27 15 113 14 58 0 109 -4 113 -9 4 -4 8 -182 8 -396 0 -214 3 -392 7
-395 11 -11 216 -11 231 0 12 8 14 123 15 675 0 366 1 672 1 680 1 13 17 16
90 15 49 0 93 -4 97 -8 4 -4 13 -2 21 5 7 6 16 8 19 5 3 -3 6 -302 6 -664 0
-362 2 -662 5 -666 3 -5 11 2 17 15 63 120 155 294 181 343 62 115 103 191
175 330 41 77 81 154 91 170 9 17 36 67 60 113 l42 82 -53 103 c-29 56 -56
107 -60 112 -26 36 -140 268 -140 284 0 11 30 93 66 182 36 88 64 163 62 165
-2 2 -58 -46 -124 -107z"/>
</g>
</svg>
